<?xml version="1.0" encoding="UTF-8"?>
<svg version="1.1" xmlns="http://www.w3.org/2000/svg" width="150" height="150">
<path d="M0 0 C14.05482397 11.30095165 24.98091077 27.59179105 27.30664062 45.73632812 C28.81747743 67.06000863 25.5796566 85.66493829 11.35742188 102.43164062 C10.68066406 103.1921875 10.00390625 103.95273438 9.30664062 104.73632812 C8.70207031 105.435 8.0975 106.13367188 7.47460938 106.85351562 C-2.61888699 117.77574116 -18.26751051 125.87333929 -33.24194336 126.91333008 C-55.70441887 127.42360986 -73.34830019 124.14744343 -90.69335938 108.73632812 C-91.33015625 108.18203125 -91.96695313 107.62773438 -92.62304688 107.05664062 C-104.59838767 95.93287962 -112.19524702 78.81496262 -113.01367188 62.61132812 C-113.65275349 41.39972907 -108.30279244 23.67873866 -93.69335938 7.73632812 C-69.50418682 -17.91105696 -28.21972574 -21.05901102 0 0 Z " fill="#EC6A2D" transform="translate(117.693359375,18.263671875)"/>
</svg>
